<svg version="1.1" id="Layer_1" xmlns="http://www.w3.org/2000/svg" xmlns:xlink="http://www.w3.org/1999/xlink" x="0px" y="0px"
	 width="100%" viewBox="0 0 1024 1024"  xml:space="preserve">
<path fill="#000000" opacity="1.000000" stroke="none" 
	d="
M432.384460,405.614441 
	C450.858246,423.641663 473.183258,432.964783 498.111542,434.494568 
	C530.276978,436.468506 562.142883,439.615326 593.140015,448.753387 
	C643.096863,463.480835 687.111877,487.917297 721.067932,528.367981 
	C748.856934,561.471985 765.056519,599.841003 772.357666,642.212341 
	C776.567444,666.643860 777.611694,691.240479 775.105103,715.851379 
	C769.188721,773.938904 746.859802,824.375671 703.980103,864.870422 
	C668.650757,898.234863 626.561096,918.645874 579.428345,929.133789 
	C559.235291,933.627136 538.746643,935.848633 518.053589,936.372131 
	C513.284363,936.492737 511.690765,934.953735 511.704834,930.126404 
	C511.842102,883.126953 511.853760,836.126648 511.680908,789.127380 
	C511.662262,784.057861 513.256470,782.807556 518.224121,782.551331 
	C551.968079,780.810852 580.884277,768.679321 601.664490,741.083679 
	C625.756042,709.090698 624.311401,662.887695 598.246277,631.087952 
	C574.947571,602.663208 544.575806,588.412964 507.790710,587.244751 
	C466.370728,585.929260 426.688080,576.723938 388.902405,559.600647 
	C358.684784,545.906982 331.480255,527.830078 308.825623,503.418701 
	C278.864563,471.134277 260.581451,432.998718 253.548538,389.610962 
	C244.400284,333.172913 250.719467,278.384705 273.629944,225.960220 
	C292.791626,182.113876 323.052734,147.532532 364.368774,123.069054 
	C391.637817,106.922897 421.060669,96.546753 452.549561,92.626411 
	C520.637268,84.149574 585.906067,93.830261 646.784058,126.060204 
	C702.340332,155.472763 741.749878,199.573563 761.563171,259.958588 
	C768.656555,281.577057 772.058716,303.927612 773.105164,326.631287 
	C773.507568,335.364227 769.165771,339.900513 760.268066,340.165527 
	C755.605469,340.304413 750.935547,340.200562 746.268921,340.201538 
	C708.269043,340.209381 670.269104,340.206146 632.269226,340.238983 
	C628.556824,340.242188 624.926453,340.078857 621.694519,337.959900 
	C618.776917,336.046997 616.862915,333.659637 616.576355,329.903778 
	C615.425659,314.822388 612.479919,300.187073 604.517151,287.026978 
	C593.325256,268.530273 577.076477,256.312378 556.640320,249.852219 
	C524.351196,239.645172 492.204163,239.748764 461.205475,254.278122 
	C431.838318,268.042755 415.515991,292.034760 410.210327,323.802216 
	C408.026520,336.877655 407.692627,349.893951 410.151917,363.011597 
	C413.224640,379.401337 420.544708,393.460052 432.384460,405.614441 
z"/>
<path fill="#000000" opacity="1.000000" stroke="none" 
	d="
M439.331024,921.993042 
	C439.321716,936.313660 439.321716,936.312439 425.413300,936.310303 
	C407.929291,936.307678 390.445251,936.329895 372.961304,936.295166 
	C365.852661,936.281067 364.104309,934.562683 364.098083,927.400391 
	C364.059723,883.274109 364.043549,839.147766 364.076019,795.021484 
	C364.082184,786.645874 365.210999,785.650146 373.615662,785.649109 
	C393.264343,785.646729 412.913055,785.645203 432.561737,785.647217 
	C439.304993,785.647888 439.325012,785.653137 439.326050,792.612610 
	C439.332581,835.573364 439.329376,878.534058 439.331024,921.993042 
z"/>
</svg>